<mxfile host="app.diagrams.net" modified="2022-05-02T08:47:31.971Z" agent="5.0 (Macintosh; Intel Mac OS X 10_15_7) AppleWebKit/537.36 (KHTML, like Gecko) Chrome/100.0.4896.127 Safari/537.36" etag="NggHtJeQK7V_7uyzuRIM" version="17.5.0" type="github" pages="2">
  <diagram id="Ll0VtS5k7MybpNmATOE-" name="P1">
    <mxGraphModel dx="946" dy="646" grid="1" gridSize="10" guides="1" tooltips="1" connect="1" arrows="1" fold="1" page="1" pageScale="1" pageWidth="827" pageHeight="1169" math="0" shadow="0">
      <root>
        <mxCell id="0" />
        <mxCell id="1" parent="0" />
        <mxCell id="YumP3khAgC9zow3Is1LS-1" value="Coordinator" style="rounded=0;whiteSpace=wrap;html=1;" parent="1" vertex="1">
          <mxGeometry x="240" y="120" width="140" height="50" as="geometry" />
        </mxCell>
        <mxCell id="YumP3khAgC9zow3Is1LS-2" value="CoordinatorContext" style="rounded=0;whiteSpace=wrap;html=1;" parent="1" vertex="1">
          <mxGeometry x="240" y="170" width="140" height="30" as="geometry" />
        </mxCell>
        <mxCell id="YumP3khAgC9zow3Is1LS-3" value="Store" style="shape=datastore;whiteSpace=wrap;html=1;" parent="1" vertex="1">
          <mxGeometry x="600" y="220" width="60" height="60" as="geometry" />
        </mxCell>
        <mxCell id="YumP3khAgC9zow3Is1LS-16" value="" style="endArrow=classic;html=1;exitX=1;exitY=0.5;exitDx=0;exitDy=0;entryX=0;entryY=0.5;entryDx=0;entryDy=0;edgeStyle=orthogonalEdgeStyle;" parent="1" source="YumP3khAgC9zow3Is1LS-2" target="YumP3khAgC9zow3Is1LS-3" edge="1">
          <mxGeometry width="50" height="50" relative="1" as="geometry">
            <mxPoint x="430" y="375" as="sourcePoint" />
            <mxPoint x="610" y="340" as="targetPoint" />
            <Array as="points">
              <mxPoint x="520" y="185" />
              <mxPoint x="520" y="250" />
            </Array>
          </mxGeometry>
        </mxCell>
        <mxCell id="YumP3khAgC9zow3Is1LS-17" value="2. Save context" style="edgeLabel;html=1;align=center;verticalAlign=middle;resizable=0;points=[];" parent="YumP3khAgC9zow3Is1LS-16" vertex="1" connectable="0">
          <mxGeometry x="-0.7333" relative="1" as="geometry">
            <mxPoint x="47.67" as="offset" />
          </mxGeometry>
        </mxCell>
        <mxCell id="YumP3khAgC9zow3Is1LS-18" value="" style="shape=flexArrow;endArrow=classic;html=1;exitX=0.5;exitY=1;exitDx=0;exitDy=0;entryX=0.5;entryY=0;entryDx=0;entryDy=0;" parent="1" source="YumP3khAgC9zow3Is1LS-2" target="YumP3khAgC9zow3Is1LS-6" edge="1">
          <mxGeometry width="50" height="50" relative="1" as="geometry">
            <mxPoint x="390" y="490" as="sourcePoint" />
            <mxPoint x="440" y="440" as="targetPoint" />
          </mxGeometry>
        </mxCell>
        <mxCell id="YumP3khAgC9zow3Is1LS-19" value="1. Init executors" style="edgeLabel;html=1;align=center;verticalAlign=middle;resizable=0;points=[];" parent="YumP3khAgC9zow3Is1LS-18" vertex="1" connectable="0">
          <mxGeometry x="-0.225" y="2" relative="1" as="geometry">
            <mxPoint as="offset" />
          </mxGeometry>
        </mxCell>
        <mxCell id="YumP3khAgC9zow3Is1LS-20" value="" style="endArrow=classic;html=1;entryX=1;entryY=0.5;entryDx=0;entryDy=0;exitX=0.5;exitY=0;exitDx=0;exitDy=0;edgeStyle=orthogonalEdgeStyle;dashed=1;" parent="1" source="YumP3khAgC9zow3Is1LS-3" target="YumP3khAgC9zow3Is1LS-1" edge="1">
          <mxGeometry width="50" height="50" relative="1" as="geometry">
            <mxPoint x="390" y="490" as="sourcePoint" />
            <mxPoint x="440" y="440" as="targetPoint" />
          </mxGeometry>
        </mxCell>
        <mxCell id="YumP3khAgC9zow3Is1LS-22" value="3. Restore context" style="edgeLabel;html=1;align=center;verticalAlign=middle;resizable=0;points=[];" parent="YumP3khAgC9zow3Is1LS-20" vertex="1" connectable="0">
          <mxGeometry x="0.3179" y="-1" relative="1" as="geometry">
            <mxPoint y="1" as="offset" />
          </mxGeometry>
        </mxCell>
        <mxCell id="YumP3khAgC9zow3Is1LS-21" value="" style="endArrow=classic;html=1;entryX=1;entryY=0.5;entryDx=0;entryDy=0;exitX=0.5;exitY=1;exitDx=0;exitDy=0;edgeStyle=orthogonalEdgeStyle;dashed=1;" parent="1" source="YumP3khAgC9zow3Is1LS-3" target="YumP3khAgC9zow3Is1LS-12" edge="1">
          <mxGeometry width="50" height="50" relative="1" as="geometry">
            <mxPoint x="640" y="230" as="sourcePoint" />
            <mxPoint x="390" y="155" as="targetPoint" />
          </mxGeometry>
        </mxCell>
        <mxCell id="YumP3khAgC9zow3Is1LS-23" value="&lt;span style=&quot;color: rgba(0 , 0 , 0 , 0) ; font-family: monospace ; font-size: 0px ; background-color: rgb(248 , 249 , 250)&quot;&gt;%3CmxGraphModel%3E%3Croot%3E%3CmxCell%20id%3D%220%22%2F%3E%3CmxCell%20id%3D%221%22%20parent%3D%220%22%2F%3E%3CmxCell%20id%3D%222%22%20value%3D%223.%20Restore%20context%22%20style%3D%22edgeLabel%3Bhtml%3D1%3Balign%3Dcenter%3BverticalAlign%3Dmiddle%3Bresizable%3D0%3Bpoints%3D%5B%5D%3B%22%20vertex%3D%221%22%20connectable%3D%220%22%20parent%3D%221%22%3E%3CmxGeometry%20x%3D%22490.8333333333335%22%20y%3D%22145%22%20as%3D%22geometry%22%2F%3E%3C%2FmxCell%3E%3C%2Froot%3E%3C%2FmxGraphModel%3E&lt;/span&gt;" style="edgeLabel;html=1;align=center;verticalAlign=middle;resizable=0;points=[];" parent="YumP3khAgC9zow3Is1LS-21" vertex="1" connectable="0">
          <mxGeometry x="0.634" y="-1" relative="1" as="geometry">
            <mxPoint as="offset" />
          </mxGeometry>
        </mxCell>
        <mxCell id="YumP3khAgC9zow3Is1LS-24" value="3. Restore context" style="edgeLabel;html=1;align=center;verticalAlign=middle;resizable=0;points=[];" parent="YumP3khAgC9zow3Is1LS-21" vertex="1" connectable="0">
          <mxGeometry x="0.5948" y="-2" relative="1" as="geometry">
            <mxPoint x="20.33" y="2" as="offset" />
          </mxGeometry>
        </mxCell>
        <mxCell id="YumP3khAgC9zow3Is1LS-6" value="Executor" style="rounded=0;whiteSpace=wrap;html=1;" parent="1" vertex="1">
          <mxGeometry x="240" y="280" width="140" height="50" as="geometry" />
        </mxCell>
        <mxCell id="YumP3khAgC9zow3Is1LS-7" value="ExecutorContext" style="rounded=0;whiteSpace=wrap;html=1;" parent="1" vertex="1">
          <mxGeometry x="240" y="330" width="140" height="30" as="geometry" />
        </mxCell>
        <mxCell id="YumP3khAgC9zow3Is1LS-9" value="Executor" style="rounded=0;whiteSpace=wrap;html=1;" parent="1" vertex="1">
          <mxGeometry x="260" y="290" width="140" height="50" as="geometry" />
        </mxCell>
        <mxCell id="YumP3khAgC9zow3Is1LS-10" value="ExecutorContext" style="rounded=0;whiteSpace=wrap;html=1;" parent="1" vertex="1">
          <mxGeometry x="260" y="340" width="140" height="30" as="geometry" />
        </mxCell>
        <mxCell id="YumP3khAgC9zow3Is1LS-12" value="Executor" style="rounded=0;whiteSpace=wrap;html=1;" parent="1" vertex="1">
          <mxGeometry x="280" y="300" width="140" height="50" as="geometry" />
        </mxCell>
        <mxCell id="YumP3khAgC9zow3Is1LS-13" value="ExecutorContext" style="rounded=0;whiteSpace=wrap;html=1;" parent="1" vertex="1">
          <mxGeometry x="280" y="350" width="140" height="30" as="geometry" />
        </mxCell>
      </root>
    </mxGraphModel>
  </diagram>
  <diagram id="y88TQVYKABNYReGNglNt" name="P2">
    <mxGraphModel dx="946" dy="646" grid="1" gridSize="10" guides="1" tooltips="1" connect="1" arrows="1" fold="1" page="1" pageScale="1" pageWidth="827" pageHeight="1169" math="0" shadow="0">
      <root>
        <mxCell id="1wJOX9fwhEkIJKxeC1iM-0" />
        <mxCell id="1wJOX9fwhEkIJKxeC1iM-1" parent="1wJOX9fwhEkIJKxeC1iM-0" />
        <mxCell id="iKATb6fRCm-MJM8Mmvhp-19" value="" style="rounded=0;whiteSpace=wrap;html=1;dashed=1;" parent="1wJOX9fwhEkIJKxeC1iM-1" vertex="1">
          <mxGeometry x="206" y="100" width="484" height="130" as="geometry" />
        </mxCell>
        <mxCell id="iKATb6fRCm-MJM8Mmvhp-0" value="Coordinator" style="rounded=0;whiteSpace=wrap;html=1;" parent="1wJOX9fwhEkIJKxeC1iM-1" vertex="1">
          <mxGeometry x="240" y="120" width="140" height="50" as="geometry" />
        </mxCell>
        <mxCell id="iKATb6fRCm-MJM8Mmvhp-1" value="CoordinatorContext" style="rounded=0;whiteSpace=wrap;html=1;" parent="1wJOX9fwhEkIJKxeC1iM-1" vertex="1">
          <mxGeometry x="240" y="170" width="140" height="30" as="geometry" />
        </mxCell>
        <mxCell id="iKATb6fRCm-MJM8Mmvhp-2" value="Store" style="shape=datastore;whiteSpace=wrap;html=1;" parent="1wJOX9fwhEkIJKxeC1iM-1" vertex="1">
          <mxGeometry x="600" y="155" width="60" height="60" as="geometry" />
        </mxCell>
        <mxCell id="iKATb6fRCm-MJM8Mmvhp-3" value="" style="endArrow=classic;html=1;exitX=1;exitY=0.5;exitDx=0;exitDy=0;entryX=0;entryY=0.5;entryDx=0;entryDy=0;" parent="1wJOX9fwhEkIJKxeC1iM-1" source="iKATb6fRCm-MJM8Mmvhp-1" target="iKATb6fRCm-MJM8Mmvhp-2" edge="1">
          <mxGeometry width="50" height="50" relative="1" as="geometry">
            <mxPoint x="430" y="375" as="sourcePoint" />
            <mxPoint x="610" y="340" as="targetPoint" />
          </mxGeometry>
        </mxCell>
        <mxCell id="iKATb6fRCm-MJM8Mmvhp-4" value="2. Save context" style="edgeLabel;html=1;align=center;verticalAlign=middle;resizable=0;points=[];" parent="iKATb6fRCm-MJM8Mmvhp-3" vertex="1" connectable="0">
          <mxGeometry x="-0.7333" relative="1" as="geometry">
            <mxPoint x="47.67" as="offset" />
          </mxGeometry>
        </mxCell>
        <mxCell id="iKATb6fRCm-MJM8Mmvhp-5" value="" style="shape=flexArrow;endArrow=classic;html=1;exitX=0.5;exitY=1;exitDx=0;exitDy=0;entryX=0.5;entryY=0;entryDx=0;entryDy=0;" parent="1wJOX9fwhEkIJKxeC1iM-1" source="iKATb6fRCm-MJM8Mmvhp-1" target="iKATb6fRCm-MJM8Mmvhp-12" edge="1">
          <mxGeometry width="50" height="50" relative="1" as="geometry">
            <mxPoint x="390" y="490" as="sourcePoint" />
            <mxPoint x="440" y="440" as="targetPoint" />
          </mxGeometry>
        </mxCell>
        <mxCell id="iKATb6fRCm-MJM8Mmvhp-6" value="1. Init executors" style="edgeLabel;html=1;align=center;verticalAlign=middle;resizable=0;points=[];" parent="iKATb6fRCm-MJM8Mmvhp-5" vertex="1" connectable="0">
          <mxGeometry x="-0.225" y="2" relative="1" as="geometry">
            <mxPoint x="-11" y="10" as="offset" />
          </mxGeometry>
        </mxCell>
        <mxCell id="iKATb6fRCm-MJM8Mmvhp-7" value="" style="endArrow=classic;html=1;entryX=1;entryY=0.5;entryDx=0;entryDy=0;exitX=0.5;exitY=0;exitDx=0;exitDy=0;edgeStyle=orthogonalEdgeStyle;dashed=1;" parent="1wJOX9fwhEkIJKxeC1iM-1" source="iKATb6fRCm-MJM8Mmvhp-2" target="iKATb6fRCm-MJM8Mmvhp-0" edge="1">
          <mxGeometry width="50" height="50" relative="1" as="geometry">
            <mxPoint x="390" y="490" as="sourcePoint" />
            <mxPoint x="440" y="440" as="targetPoint" />
          </mxGeometry>
        </mxCell>
        <mxCell id="iKATb6fRCm-MJM8Mmvhp-8" value="3. Restore context" style="edgeLabel;html=1;align=center;verticalAlign=middle;resizable=0;points=[];" parent="iKATb6fRCm-MJM8Mmvhp-7" vertex="1" connectable="0">
          <mxGeometry x="0.3179" y="-1" relative="1" as="geometry">
            <mxPoint y="1" as="offset" />
          </mxGeometry>
        </mxCell>
        <mxCell id="iKATb6fRCm-MJM8Mmvhp-12" value="Executor" style="rounded=0;whiteSpace=wrap;html=1;" parent="1wJOX9fwhEkIJKxeC1iM-1" vertex="1">
          <mxGeometry x="240" y="330" width="140" height="50" as="geometry" />
        </mxCell>
        <mxCell id="iKATb6fRCm-MJM8Mmvhp-13" value="ExecutorContext" style="rounded=0;whiteSpace=wrap;html=1;" parent="1wJOX9fwhEkIJKxeC1iM-1" vertex="1">
          <mxGeometry x="240" y="380" width="140" height="30" as="geometry" />
        </mxCell>
        <mxCell id="iKATb6fRCm-MJM8Mmvhp-14" value="Executor" style="rounded=0;whiteSpace=wrap;html=1;" parent="1wJOX9fwhEkIJKxeC1iM-1" vertex="1">
          <mxGeometry x="260" y="340" width="140" height="50" as="geometry" />
        </mxCell>
        <mxCell id="iKATb6fRCm-MJM8Mmvhp-15" value="ExecutorContext" style="rounded=0;whiteSpace=wrap;html=1;" parent="1wJOX9fwhEkIJKxeC1iM-1" vertex="1">
          <mxGeometry x="260" y="390" width="140" height="30" as="geometry" />
        </mxCell>
        <mxCell id="iKATb6fRCm-MJM8Mmvhp-16" value="Executor" style="rounded=0;whiteSpace=wrap;html=1;" parent="1wJOX9fwhEkIJKxeC1iM-1" vertex="1">
          <mxGeometry x="280" y="350" width="140" height="50" as="geometry" />
        </mxCell>
        <mxCell id="iKATb6fRCm-MJM8Mmvhp-17" value="ExecutorContext" style="rounded=0;whiteSpace=wrap;html=1;" parent="1wJOX9fwhEkIJKxeC1iM-1" vertex="1">
          <mxGeometry x="280" y="400" width="140" height="30" as="geometry" />
        </mxCell>
        <mxCell id="iKATb6fRCm-MJM8Mmvhp-22" value="Actor Observer" style="rounded=0;whiteSpace=wrap;html=1;fillColor=#f5f5f5;strokeColor=#666666;fontColor=#333333;" parent="1wJOX9fwhEkIJKxeC1iM-1" vertex="1">
          <mxGeometry x="520" y="353" width="140" height="70" as="geometry" />
        </mxCell>
        <mxCell id="iKATb6fRCm-MJM8Mmvhp-23" value="" style="endArrow=classic;html=1;exitX=1;exitY=0.75;exitDx=0;exitDy=0;entryX=0;entryY=0.5;entryDx=0;entryDy=0;dashed=1;startArrow=classic;startFill=1;" parent="1wJOX9fwhEkIJKxeC1iM-1" source="iKATb6fRCm-MJM8Mmvhp-16" target="iKATb6fRCm-MJM8Mmvhp-22" edge="1">
          <mxGeometry width="50" height="50" relative="1" as="geometry">
            <mxPoint x="530" y="480" as="sourcePoint" />
            <mxPoint x="580" y="430" as="targetPoint" />
          </mxGeometry>
        </mxCell>
        <mxCell id="iKATb6fRCm-MJM8Mmvhp-24" value="" style="endArrow=classic;html=1;exitX=0.5;exitY=0;exitDx=0;exitDy=0;entryX=0.75;entryY=1;entryDx=0;entryDy=0;dashed=1;edgeStyle=orthogonalEdgeStyle;" parent="1wJOX9fwhEkIJKxeC1iM-1" source="iKATb6fRCm-MJM8Mmvhp-22" target="iKATb6fRCm-MJM8Mmvhp-1" edge="1">
          <mxGeometry width="50" height="50" relative="1" as="geometry">
            <mxPoint x="429.9999999999998" y="397.5" as="sourcePoint" />
            <mxPoint x="530" y="397.9999999999999" as="targetPoint" />
          </mxGeometry>
        </mxCell>
        <mxCell id="iKATb6fRCm-MJM8Mmvhp-25" value="4.&amp;nbsp;onActorStateChanged" style="edgeLabel;html=1;align=center;verticalAlign=middle;resizable=0;points=[];" parent="iKATb6fRCm-MJM8Mmvhp-24" vertex="1" connectable="0">
          <mxGeometry x="0.0807" y="-1" relative="1" as="geometry">
            <mxPoint as="offset" />
          </mxGeometry>
        </mxCell>
      </root>
    </mxGraphModel>
  </diagram>
</mxfile>
